<svg width="62" height="62" viewBox="0 0 62 62" fill="none" xmlns="http://www.w3.org/2000/svg">
<g clip-path="url(#clip0_22_12)">
<path d="M61.5 0.5H0.5V61.5H61.5V0.5Z" fill="white" stroke="black"/>
<path d="M13.024 21.392V19.6H16.352C17.312 19.6 18.3467 19.5573 19.456 19.472C20.5867 19.3867 21.6747 19.344 22.72 19.344C23.8933 19.344 25.0453 19.4613 26.176 19.696C27.3067 19.9093 28.3093 20.2827 29.184 20.816C30.0587 21.3493 30.7627 22.064 31.296 22.96C31.8507 23.8347 32.128 24.9333 32.128 26.256C32.128 27.5147 31.8507 28.6027 31.296 29.52C30.7413 30.416 30.0053 31.152 29.088 31.728C28.192 32.304 27.1467 32.7307 25.952 33.008C24.7787 33.2853 23.5627 33.424 22.304 33.424C22.176 33.424 21.984 33.424 21.728 33.424C21.472 33.424 21.1947 33.424 20.896 33.424C20.6187 33.4027 20.352 33.3813 20.096 33.36C19.84 33.3387 19.648 33.3173 19.52 33.296V40.208H22.72V42H13.024V40.208H15.936V21.392H13.024ZM19.52 31.472C19.6267 31.5147 19.7867 31.5467 20 31.568C20.2347 31.568 20.48 31.5787 20.736 31.6C20.992 31.6213 21.2373 31.632 21.472 31.632C21.728 31.632 21.92 31.632 22.048 31.632C22.88 31.632 23.6587 31.536 24.384 31.344C25.1307 31.1307 25.7813 30.8107 26.336 30.384C26.8907 29.9573 27.328 29.4027 27.648 28.72C27.968 28.0373 28.128 27.216 28.128 26.256C28.128 24.5067 27.5733 23.216 26.464 22.384C25.376 21.552 23.8827 21.136 21.984 21.136C21.408 21.136 20.928 21.1573 20.544 21.2C20.16 21.2213 19.8187 21.264 19.52 21.328V31.472ZM36.0638 19.6H33.3438V18H39.4238V28.496H39.5198C39.9251 27.3653 40.6078 26.48 41.5677 25.84C42.5278 25.2 43.6051 24.88 44.7998 24.88C46.9758 24.88 48.6398 25.5627 49.7917 26.928C50.9651 28.2933 51.5518 30.416 51.5518 33.296C51.5518 36.2613 50.7411 38.512 49.1198 40.048C47.5198 41.5627 45.2264 42.32 42.2398 42.32C41.6424 42.32 41.0344 42.2773 40.4158 42.192C39.8184 42.128 39.2318 42.0427 38.6558 41.936C38.1011 41.808 37.5998 41.6693 37.1518 41.52C36.7038 41.3707 36.3411 41.2107 36.0638 41.04V19.6ZM43.7438 27.024C42.5918 27.024 41.6638 27.376 40.9598 28.08C40.2771 28.7627 39.7651 29.648 39.4238 30.736V40.048C39.8504 40.2827 40.3624 40.4747 40.9598 40.624C41.5784 40.752 42.2398 40.816 42.9438 40.816C44.5224 40.816 45.7491 40.176 46.6238 38.896C47.4984 37.616 47.9358 35.7493 47.9358 33.296C47.9358 32.4213 47.8611 31.6 47.7118 30.832C47.5624 30.064 47.3171 29.4027 46.9758 28.848C46.6344 28.272 46.1971 27.824 45.6638 27.504C45.1518 27.184 44.5118 27.024 43.7438 27.024Z" fill="black"/>
<path d="M13.024 21.392V19.6H16.352C17.312 19.6 18.3467 19.5573 19.456 19.472C20.5867 19.3867 21.6747 19.344 22.72 19.344C23.8933 19.344 25.0453 19.4613 26.176 19.696C27.3067 19.9093 28.3093 20.2827 29.184 20.816C30.0587 21.3493 30.7627 22.064 31.296 22.96C31.8507 23.8347 32.128 24.9333 32.128 26.256C32.128 27.5147 31.8507 28.6027 31.296 29.52C30.7413 30.416 30.0053 31.152 29.088 31.728C28.192 32.304 27.1467 32.7307 25.952 33.008C24.7787 33.2853 23.5627 33.424 22.304 33.424C22.176 33.424 21.984 33.424 21.728 33.424C21.472 33.424 21.1947 33.424 20.896 33.424C20.6187 33.4027 20.352 33.3813 20.096 33.36C19.84 33.3387 19.648 33.3173 19.52 33.296V40.208H22.72V42H13.024V40.208H15.936V21.392H13.024ZM19.52 31.472C19.6267 31.5147 19.7867 31.5467 20 31.568C20.2347 31.568 20.48 31.5787 20.736 31.6C20.992 31.6213 21.2373 31.632 21.472 31.632C21.728 31.632 21.92 31.632 22.048 31.632C22.88 31.632 23.6587 31.536 24.384 31.344C25.1307 31.1307 25.7813 30.8107 26.336 30.384C26.8907 29.9573 27.328 29.4027 27.648 28.72C27.968 28.0373 28.128 27.216 28.128 26.256C28.128 24.5067 27.5733 23.216 26.464 22.384C25.376 21.552 23.8827 21.136 21.984 21.136C21.408 21.136 20.928 21.1573 20.544 21.2C20.16 21.2213 19.8187 21.264 19.52 21.328V31.472ZM36.0638 19.6H33.3438V18H39.4238V28.496H39.5198C39.9251 27.3653 40.6078 26.48 41.5677 25.84C42.5278 25.2 43.6051 24.88 44.7998 24.88C46.9758 24.88 48.6398 25.5627 49.7917 26.928C50.9651 28.2933 51.5518 30.416 51.5518 33.296C51.5518 36.2613 50.7411 38.512 49.1198 40.048C47.5198 41.5627 45.2264 42.32 42.2398 42.32C41.6424 42.32 41.0344 42.2773 40.4158 42.192C39.8184 42.128 39.2318 42.0427 38.6558 41.936C38.1011 41.808 37.5998 41.6693 37.1518 41.52C36.7038 41.3707 36.3411 41.2107 36.0638 41.04V19.6ZM43.7438 27.024C42.5918 27.024 41.6638 27.376 40.9598 28.08C40.2771 28.7627 39.7651 29.648 39.4238 30.736V40.048C39.8504 40.2827 40.3624 40.4747 40.9598 40.624C41.5784 40.752 42.2398 40.816 42.9438 40.816C44.5224 40.816 45.7491 40.176 46.6238 38.896C47.4984 37.616 47.9358 35.7493 47.9358 33.296C47.9358 32.4213 47.8611 31.6 47.7118 30.832C47.5624 30.064 47.3171 29.4027 46.9758 28.848C46.6344 28.272 46.1971 27.824 45.6638 27.504C45.1518 27.184 44.5118 27.024 43.7438 27.024Z" fill="black"/>
<path d="M51.7868 10.084C51.4905 10.084 51.2187 10.0257 50.9713 9.909C50.724 9.79 50.5268 9.62783 50.3798 9.4225C50.2328 9.21717 50.1593 8.98383 50.1593 8.7225C50.1593 8.50317 50.1955 8.31533 50.2678 8.159C50.3425 8.00267 50.444 7.872 50.5723 7.767C50.7007 7.65967 50.8418 7.57333 50.9958 7.508C50.8815 7.44733 50.7753 7.37383 50.6773 7.2875C50.5793 7.19883 50.5012 7.09033 50.4428 6.962C50.3845 6.83367 50.3553 6.6785 50.3553 6.4965C50.3553 6.25383 50.4195 6.04267 50.5478 5.863C50.6762 5.68333 50.8477 5.5445 51.0623 5.4465C51.2793 5.34617 51.5197 5.296 51.7833 5.296C52.0493 5.296 52.2885 5.34617 52.5008 5.4465C52.7155 5.5445 52.8847 5.68333 53.0083 5.863C53.132 6.04267 53.1938 6.25383 53.1938 6.4965C53.1938 6.7695 53.1332 6.983 53.0118 7.137C52.8905 7.291 52.7435 7.41467 52.5708 7.508C52.7248 7.57333 52.8648 7.65967 52.9908 7.767C53.1168 7.872 53.2172 8.00267 53.2918 8.159C53.3688 8.31533 53.4073 8.50317 53.4073 8.7225C53.4073 8.98383 53.3338 9.21717 53.1868 9.4225C53.0422 9.62783 52.8473 9.79 52.6023 9.909C52.3573 10.0257 52.0855 10.084 51.7868 10.084ZM51.7833 9.3175C51.9163 9.3175 52.0353 9.286 52.1403 9.223C52.2477 9.16 52.334 9.076 52.3993 8.971C52.4647 8.86367 52.4973 8.74467 52.4973 8.614C52.4973 8.48333 52.4647 8.36433 52.3993 8.257C52.334 8.14967 52.2477 8.06567 52.1403 8.005C52.0353 7.942 51.9163 7.9105 51.7833 7.9105C51.6503 7.9105 51.5302 7.942 51.4228 8.005C51.3155 8.068 51.2292 8.15317 51.1638 8.2605C51.1008 8.3655 51.0693 8.48333 51.0693 8.614C51.0693 8.74467 51.1008 8.86367 51.1638 8.971C51.2292 9.076 51.3155 9.16 51.4228 9.223C51.5302 9.286 51.6503 9.3175 51.7833 9.3175ZM51.7868 7.228C51.8988 7.228 52.0015 7.2 52.0948 7.144C52.1905 7.088 52.2663 7.01217 52.3223 6.9165C52.3783 6.82083 52.4063 6.71583 52.4063 6.6015C52.4063 6.4895 52.3772 6.38683 52.3188 6.2935C52.2628 6.20017 52.1882 6.1255 52.0948 6.0695C52.0015 6.01117 51.8988 5.982 51.7868 5.982C51.6725 5.982 51.5675 6.01117 51.4718 6.0695C51.3785 6.1255 51.3027 6.20017 51.2443 6.2935C51.1883 6.38683 51.1603 6.4895 51.1603 6.6015C51.1603 6.71583 51.1883 6.82083 51.2443 6.9165C51.3003 7.00983 51.3762 7.08567 51.4718 7.144C51.5675 7.2 51.6725 7.228 51.7868 7.228ZM55.6566 6.045C55.4886 6.045 55.3405 6.0835 55.2121 6.1605C55.0838 6.23517 54.9765 6.32267 54.8901 6.423C54.8038 6.52333 54.7373 6.61433 54.6906 6.696C54.6463 6.77767 54.6218 6.8255 54.6171 6.8395L53.8646 6.4965C53.8693 6.47083 53.8915 6.41483 53.9311 6.3285C53.9708 6.23983 54.0326 6.13717 54.1166 6.0205C54.203 5.90383 54.315 5.79067 54.4526 5.681C54.5903 5.57133 54.7583 5.48033 54.9566 5.408C55.155 5.33333 55.3883 5.296 55.6566 5.296C55.9553 5.296 56.2061 5.338 56.4091 5.422C56.6145 5.506 56.7778 5.61917 56.8991 5.7615C57.0228 5.9015 57.1115 6.059 57.1651 6.234C57.2211 6.40667 57.2491 6.58167 57.2491 6.759C57.2491 6.95967 57.206 7.15683 57.1196 7.3505C57.0356 7.54417 56.9248 7.73083 56.7871 7.9105C56.6518 8.08783 56.506 8.2535 56.3496 8.4075C56.1933 8.55917 56.0428 8.6945 55.8981 8.8135C55.7558 8.93017 55.6333 9.02467 55.5306 9.097C55.428 9.16933 55.365 9.21483 55.3416 9.2335H57.2106V10H54.0116V9.3C54.0606 9.26267 54.1516 9.195 54.2846 9.097C54.4176 8.99667 54.5728 8.87533 54.7501 8.733C54.9275 8.59067 55.1095 8.4355 55.2961 8.2675C55.4851 8.0995 55.6601 7.92683 55.8211 7.7495C55.9845 7.57217 56.1163 7.39833 56.2166 7.228C56.3193 7.05533 56.3706 6.8955 56.3706 6.7485C56.3706 6.49183 56.3088 6.311 56.1851 6.206C56.0615 6.09867 55.8853 6.045 55.6566 6.045Z" fill="black"/>
<mask id="mask0_22_12" style="mask-type:luminance" maskUnits="userSpaceOnUse" x="50" y="49" width="8" height="8">
<path d="M58 49H50V57H58V49Z" fill="white"/>
</mask>
<g mask="url(#mask0_22_12)">
<path fill-rule="evenodd" clip-rule="evenodd" d="M51.5697 54.3183L53.143 53.436L53.1697 53.3593L53.143 53.3167H53.0667L52.8033 53.3007L51.904 53.2763L51.1243 53.244L50.369 53.2033L50.1787 53.163L50 52.928L50.0183 52.8107L50.1783 52.7037L50.407 52.7237L50.9137 52.758L51.673 52.8107L52.2237 52.843L53.04 52.928H53.1697L53.188 52.8757L53.1433 52.843L53.109 52.8107L52.323 52.2787L51.4723 51.716L51.027 51.392L50.7857 51.2283L50.6643 51.0743L50.6117 50.7383L50.8303 50.4977L51.124 50.5177L51.199 50.538L51.4967 50.7667L52.1327 51.2587L52.963 51.8697L53.0847 51.971L53.133 51.9367L53.1393 51.9123L53.0847 51.821L52.633 51.0057L52.151 50.1757L51.9363 49.8317L51.8797 49.6253C51.8581 49.5461 51.8464 49.4645 51.845 49.3823L52.0943 49.0447L52.232 49L52.564 49.0447L52.704 49.166L52.9107 49.6373L53.2447 50.3803L53.763 51.3903L53.915 51.6897L53.996 51.967L54.0263 52.052H54.079V52.0033L54.1217 51.4347L54.2007 50.7363L54.2773 49.838L54.304 49.5847L54.4293 49.2813L54.6783 49.1173L54.873 49.2107L55.033 49.439L55.0107 49.587L54.9153 50.204L54.729 51.1717L54.6077 51.819H54.6783L54.7593 51.7383L55.0877 51.303L55.6383 50.615L55.8817 50.3417L56.165 50.0403L56.3473 49.8967H56.6917L56.945 50.273L56.8317 50.6617L56.477 51.1107L56.1833 51.4913L55.762 52.058L55.4987 52.5113L55.523 52.548L55.5857 52.5413L56.5377 52.3393L57.052 52.246L57.6657 52.141L57.9433 52.2703L57.9737 52.402L57.8643 52.671L57.208 52.833L56.4383 52.987L55.292 53.258L55.278 53.268L55.2943 53.2883L55.8107 53.337L56.0313 53.349H56.572L57.5787 53.424L57.842 53.598L58 53.8107L57.9737 53.9723L57.5687 54.179L57.022 54.0493L55.7457 53.746L55.3083 53.6363H55.2477V53.673L55.612 54.029L56.2807 54.6323L57.117 55.409L57.1593 55.6017L57.052 55.7533L56.9387 55.737L56.2037 55.1847L55.92 54.9357L55.278 54.3957H55.2353V54.4523L55.3833 54.6687L56.165 55.8423L56.2057 56.2023L56.149 56.32L55.9463 56.391L55.7237 56.3503L55.2657 55.7087L54.794 54.9863L54.413 54.3387L54.3663 54.3653L54.1417 56.7833L54.0363 56.9067L53.7933 57L53.591 56.8463L53.4837 56.5973L53.591 56.1053L53.7207 55.464L53.8257 54.954L53.921 54.3207L53.9777 54.11L53.9737 54.096L53.927 54.102L53.449 54.7577L52.7223 55.7393L52.147 56.3543L52.009 56.409L51.77 56.2857L51.7923 56.065L51.926 55.8687L52.722 54.8567L53.202 54.2293L53.512 53.8673L53.51 53.8147H53.4917L51.3773 55.1867L51.0007 55.2353L50.8383 55.0833L50.8587 54.8347L50.9357 54.7537L51.5717 54.3163L51.5697 54.3183Z" fill="black"/>
</g>
</g>
<defs>
<clipPath id="clip0_22_12">
<rect width="62" height="62" fill="white"/>
</clipPath>
</defs>
</svg>
